<?xml version="1.0" encoding="utf-8"?>
<svg width="512px" height="512px" viewBox="0 0 512 512" version="1.1" xmlns:xlink="http://www.w3.org/1999/xlink" xmlns="http://www.w3.org/2000/svg">
  <desc>Created with Lunacy</desc>
  <defs>
    <rect width="512" height="512" id="artboard_1" />
    <clipPath id="clip_1">
      <use xlink:href="#artboard_1" clip-rule="evenodd" />
    </clipPath>
  </defs>
  <g id="Artboard" clip-path="url(#clip_1)">
    <path d="M0 0L512 0L512 512L0 512L0 0Z" id="Rectangle" fill="#0078D7" fill-rule="evenodd" stroke="none" />
    <path d="M0 0L72 0L72 72L0 72L0 0Z" transform="translate(220 76)" id="Rectangle-2" fill="#FF004D" fill-rule="evenodd" stroke="none" />
    <path d="M0 0L72 0L72 72L0 72L0 0Z" transform="translate(292 148)" id="Rectangle-5" fill="#FFCCAA" fill-rule="evenodd" stroke="none" />
    <path d="M0 0L72 0L72 72L0 72L0 0Z" transform="translate(364 220)" id="Rectangle-6" fill="#FF77A8" fill-rule="evenodd" stroke="none" />
    <path d="M0 0L72 0L72 72L0 72L0 0Z" transform="translate(292 292)" id="Rectangle-7" fill="#83769C" fill-rule="evenodd" stroke="none" />
    <path d="M0 0L72 0L72 72L0 72L0 0Z" transform="translate(220 364)" id="Rectangle-8" fill="#29ADFF" fill-rule="evenodd" stroke="none" />
    <path d="M0 0L72 0L72 72L0 72L0 0Z" transform="translate(148 292)" id="Rectangle-9" fill="#00E756" fill-rule="evenodd" stroke="none" />
    <path d="M0 0L72 0L72 72L0 72L0 0Z" transform="translate(76 219)" id="Rectangle-3" fill="#FFFF27" fill-rule="evenodd" stroke="none" />
    <path d="M0 0L72 0L72 72L0 72L0 0Z" transform="translate(148 148)" id="Rectangle-4" fill="#FFA300" fill-rule="evenodd" stroke="none" />
    <path d="M0 0L72 0L72 72L0 72L0 0Z" transform="translate(148 220)" id="Blanc" fill="#FFFFFF" fill-rule="evenodd" stroke="none" />
    <path d="M0 0L72 0L72 72L0 72L0 0Z" transform="translate(292 220)" id="Blanc2" fill="#FFFFFF" fill-rule="evenodd" stroke="none" />
    <path d="M0 0L72 0L72 216L0 216L0 0Z" transform="translate(220 148)" id="Rectangle-10" fill="#FFFFFF" fill-rule="evenodd" stroke="none" />
  </g>
</svg>