<?xml version="1.0" encoding="utf-8"?>
<svg width="512px" height="512px" viewBox="0 0 512 512" version="1.1" xmlns:xlink="http://www.w3.org/1999/xlink" xmlns="http://www.w3.org/2000/svg">
  <desc>Created with Lunacy</desc>
  <defs>
    <rect width="512" height="512" id="artboard_1" />
    <clipPath id="clip_1">
      <use xlink:href="#artboard_1" clip-rule="evenodd" />
    </clipPath>
  </defs>
  <g id="Artboard" clip-path="url(#clip_1)">
    <path d="M95.999 0L416.001 0Q418.358 0 420.711 0.115635Q423.065 0.23127 425.411 0.462261Q427.756 0.693253 430.087 1.03904Q432.418 1.38484 434.729 1.84459Q437.041 2.30435 439.327 2.87697Q441.613 3.44959 443.868 4.13368Q446.123 4.81778 448.342 5.61171Q450.561 6.40564 452.738 7.30749Q454.915 8.20934 457.046 9.21693Q459.176 10.2245 461.255 11.3354Q463.333 12.4464 465.354 13.6579Q467.376 14.8695 469.335 16.1787Q471.295 17.488 473.188 18.8919Q475.08 20.2957 476.902 21.7908Q478.724 23.2858 480.47 24.8684Q482.216 26.4511 483.883 28.1175Q485.549 29.7839 487.132 31.53Q488.714 33.2762 490.209 35.0979Q491.704 36.9196 493.108 38.8125Q494.512 40.7053 495.821 42.6648Q497.13 44.6243 498.342 46.6456Q499.554 48.667 500.664 50.7454Q501.775 52.8238 502.783 54.9541Q503.791 57.0845 504.692 59.2618Q505.594 61.439 506.388 63.6579Q507.182 65.8768 507.866 68.132Q508.55 70.3871 509.123 72.6731Q509.696 74.9592 510.155 77.2705Q510.615 79.5819 510.961 81.913Q511.307 84.2442 511.538 86.5895Q511.769 88.9347 511.884 91.2886Q512 93.6424 512 95.999L512 416.001Q512 418.358 511.884 420.711Q511.769 423.065 511.538 425.411Q511.307 427.756 510.961 430.087Q510.615 432.418 510.155 434.729Q509.696 437.041 509.123 439.327Q508.55 441.613 507.866 443.868Q507.182 446.123 506.388 448.342Q505.594 450.561 504.692 452.738Q503.791 454.915 502.783 457.046Q501.775 459.176 500.665 461.255Q499.554 463.333 498.342 465.354Q497.13 467.376 495.821 469.335Q494.512 471.295 493.108 473.188Q491.704 475.08 490.209 476.902Q488.714 478.724 487.132 480.47Q485.549 482.216 483.883 483.883Q482.216 485.549 480.47 487.132Q478.724 488.714 476.902 490.209Q475.08 491.704 473.188 493.108Q471.295 494.512 469.335 495.821Q467.376 497.13 465.354 498.342Q463.333 499.554 461.255 500.664Q459.176 501.775 457.046 502.783Q454.915 503.791 452.738 504.692Q450.561 505.594 448.342 506.388Q446.123 507.182 443.868 507.866Q441.613 508.55 439.327 509.123Q437.041 509.696 434.729 510.155Q432.418 510.615 430.087 510.961Q427.756 511.307 425.411 511.538Q423.065 511.769 420.711 511.884Q418.358 512 416.001 512L95.999 512Q93.6424 512 91.2886 511.884Q88.9348 511.769 86.5895 511.538Q84.2442 511.307 81.913 510.961Q79.5819 510.615 77.2705 510.155Q74.9592 509.696 72.6731 509.123Q70.3871 508.55 68.132 507.866Q65.8768 507.182 63.6579 506.388Q61.439 505.594 59.2618 504.692Q57.0845 503.791 54.9541 502.783Q52.8238 501.775 50.7454 500.665Q48.667 499.554 46.6456 498.342Q44.6243 497.13 42.6648 495.821Q40.7053 494.512 38.8125 493.108Q36.9196 491.704 35.0979 490.209Q33.2762 488.714 31.53 487.132Q29.7839 485.549 28.1175 483.883Q26.4511 482.216 24.8684 480.47Q23.2858 478.724 21.7908 476.902Q20.2957 475.08 18.8919 473.188Q17.488 471.295 16.1787 469.335Q14.8695 467.376 13.6579 465.354Q12.4464 463.333 11.3354 461.255Q10.2245 459.176 9.21693 457.046Q8.20934 454.915 7.30749 452.738Q6.40564 450.561 5.61171 448.342Q4.81778 446.123 4.13368 443.868Q3.44959 441.613 2.87697 439.327Q2.30435 437.041 1.84459 434.729Q1.38484 432.418 1.03904 430.087Q0.693253 427.756 0.462261 425.411Q0.23127 423.065 0.115635 420.711Q0 418.358 0 416.001L0 95.999Q0 93.6424 0.115635 91.2886Q0.23127 88.9348 0.462261 86.5895Q0.693253 84.2442 1.03904 81.913Q1.38484 79.5819 1.84459 77.2705Q2.30435 74.9592 2.87697 72.6731Q3.44959 70.3871 4.13368 68.132Q4.81778 65.8768 5.61171 63.6579Q6.40564 61.439 7.30749 59.2618Q8.20934 57.0845 9.21693 54.9541Q10.2245 52.8238 11.3354 50.7454Q12.4464 48.667 13.6579 46.6456Q14.8695 44.6243 16.1787 42.6648Q17.488 40.7053 18.8919 38.8125Q20.2957 36.9196 21.7908 35.0979Q23.2858 33.2762 24.8684 31.53Q26.4511 29.7839 28.1175 28.1175Q29.7839 26.4511 31.53 24.8684Q33.2762 23.2858 35.0979 21.7908Q36.9196 20.2957 38.8125 18.8919Q40.7053 17.488 42.6648 16.1787Q44.6243 14.8695 46.6456 13.6579Q48.667 12.4464 50.7454 11.3354Q52.8238 10.2245 54.9541 9.21693Q57.0845 8.20934 59.2618 7.30749Q61.439 6.40564 63.6579 5.61171Q65.8768 4.81778 68.132 4.13368Q70.3871 3.44959 72.6731 2.87697Q74.9592 2.30435 77.2705 1.84459Q79.5819 1.38484 81.913 1.03904Q84.2442 0.693253 86.5895 0.462261Q88.9347 0.23127 91.2886 0.115635Q93.6424 0 95.999 0Z" id="Rectangle" fill="#0078D7" fill-rule="evenodd" stroke="none" />
    <path d="M0 0L72 0L72 72L0 72L0 0Z" transform="translate(220 76)" id="Rectangle-2" fill="#FF004D" fill-rule="evenodd" stroke="none" />
    <path d="M0 0L72 0L72 72L0 72L0 0Z" transform="translate(292 148)" id="Rectangle-5" fill="#FFCCAA" fill-rule="evenodd" stroke="none" />
    <path d="M0 0L72 0L72 72L0 72L0 0Z" transform="translate(364 220)" id="Rectangle-6" fill="#FF77A8" fill-rule="evenodd" stroke="none" />
    <path d="M0 0L72 0L72 72L0 72L0 0Z" transform="translate(292 292)" id="Rectangle-7" fill="#83769C" fill-rule="evenodd" stroke="none" />
    <path d="M0 0L72 0L72 72L0 72L0 0Z" transform="translate(220 364)" id="Rectangle-8" fill="#29ADFF" fill-rule="evenodd" stroke="none" />
    <path d="M0 0L72 0L72 72L0 72L0 0Z" transform="translate(148 292)" id="Rectangle-9" fill="#00E756" fill-rule="evenodd" stroke="none" />
    <path d="M0 0L72 0L72 72L0 72L0 0Z" transform="translate(76 219)" id="Rectangle-3" fill="#FFFF27" fill-rule="evenodd" stroke="none" />
    <path d="M0 0L72 0L72 72L0 72L0 0Z" transform="translate(148 148)" id="Rectangle-4" fill="#FFA300" fill-rule="evenodd" stroke="none" />
    <path d="M0 0L72 0L72 72L0 72L0 0Z" transform="translate(148 220)" id="Blanc" fill="#FFFFFF" fill-rule="evenodd" stroke="none" />
    <path d="M0 0L72 0L72 72L0 72L0 0Z" transform="translate(292 220)" id="Blanc2" fill="#FFFFFF" fill-rule="evenodd" stroke="none" />
    <path d="M0 0L72 0L72 216L0 216L0 0Z" transform="translate(220 148)" id="Rectangle-10" fill="#FFFFFF" fill-rule="evenodd" stroke="none" />
  </g>
</svg>